<?xml version="1.0" encoding="UTF-8" standalone="no"?><svg xmlns="http://www.w3.org/2000/svg" xmlns:xlink="http://www.w3.org/1999/xlink" contentScriptType="application/ecmascript" contentStyleType="text/css" height="676px" preserveAspectRatio="none" style="width:943px;height:676px;" version="1.1" viewBox="0 0 943 676" width="943px" zoomAndPan="magnify"><defs><filter height="300%" id="f589vpkp7pdm4" width="300%" x="-1" y="-1"><feGaussianBlur result="blurOut" stdDeviation="2.0"/><feColorMatrix in="blurOut" result="blurOut2" type="matrix" values="0 0 0 0 0 0 0 0 0 0 0 0 0 0 0 0 0 0 .4 0"/><feOffset dx="4.0" dy="4.0" in="blurOut2" result="blurOut3"/><feBlend in="SourceGraphic" in2="blurOut3" mode="normal"/></filter></defs><g><rect fill="#FFFFFF" filter="url(#f589vpkp7pdm4)" height="323.2656" style="stroke: #000000; stroke-width: 2.0;" width="911.5" x="13" y="248.9609"/><rect fill="#FFFFFF" height="160.4688" style="stroke: none; stroke-width: 1.0;" width="911.5" x="13" y="411.7578"/><line style="stroke: #A80036; stroke-width: 1.0; stroke-dasharray: 5.0,5.0;" x1="56" x2="56" y1="86.2969" y2="589.2266"/><line style="stroke: #A80036; stroke-width: 1.0; stroke-dasharray: 5.0,5.0;" x1="143" x2="143" y1="86.2969" y2="589.2266"/><line style="stroke: #A80036; stroke-width: 1.0; stroke-dasharray: 5.0,5.0;" x1="312.5" x2="312.5" y1="86.2969" y2="589.2266"/><line style="stroke: #A80036; stroke-width: 1.0; stroke-dasharray: 5.0,5.0;" x1="504.5" x2="504.5" y1="86.2969" y2="589.2266"/><line style="stroke: #A80036; stroke-width: 1.0; stroke-dasharray: 5.0,5.0;" x1="670" x2="670" y1="86.2969" y2="589.2266"/><line style="stroke: #A80036; stroke-width: 1.0; stroke-dasharray: 5.0,5.0;" x1="858.5" x2="858.5" y1="86.2969" y2="589.2266"/><text fill="#000000" font-family="sans-serif" font-size="14" lengthAdjust="spacingAndGlyphs" textLength="60" x="23" y="82.9951">Ususário</text><ellipse cx="56" cy="13" fill="#FEFECE" filter="url(#f589vpkp7pdm4)" rx="8" ry="8" style="stroke: #A80036; stroke-width: 2.0;"/><path d="M56,21 L56,48 M43,29 L69,29 M56,48 L43,63 M56,48 L69,63 " fill="none" filter="url(#f589vpkp7pdm4)" style="stroke: #A80036; stroke-width: 2.0;"/><text fill="#000000" font-family="sans-serif" font-size="14" lengthAdjust="spacingAndGlyphs" textLength="60" x="23" y="601.2217">Ususário</text><ellipse cx="56" cy="614.5234" fill="#FEFECE" filter="url(#f589vpkp7pdm4)" rx="8" ry="8" style="stroke: #A80036; stroke-width: 2.0;"/><path d="M56,622.5234 L56,649.5234 M43,630.5234 L69,630.5234 M56,649.5234 L43,664.5234 M56,649.5234 L69,664.5234 " fill="none" filter="url(#f589vpkp7pdm4)" style="stroke: #A80036; stroke-width: 2.0;"/><rect fill="#FEFECE" filter="url(#f589vpkp7pdm4)" height="30.2969" style="stroke: #A80036; stroke-width: 1.5;" width="84" x="99" y="51"/><text fill="#000000" font-family="sans-serif" font-size="14" lengthAdjust="spacingAndGlyphs" textLength="70" x="106" y="70.9951">Front_end</text><rect fill="#FEFECE" filter="url(#f589vpkp7pdm4)" height="30.2969" style="stroke: #A80036; stroke-width: 1.5;" width="84" x="99" y="588.2266"/><text fill="#000000" font-family="sans-serif" font-size="14" lengthAdjust="spacingAndGlyphs" textLength="70" x="106" y="608.2217">Front_end</text><rect fill="#FEFECE" filter="url(#f589vpkp7pdm4)" height="30.2969" style="stroke: #A80036; stroke-width: 1.5;" width="195" x="213.5" y="51"/><text fill="#000000" font-family="sans-serif" font-size="14" lengthAdjust="spacingAndGlyphs" textLength="181" x="220.5" y="70.9951">solicitarPagamentoService</text><rect fill="#FEFECE" filter="url(#f589vpkp7pdm4)" height="30.2969" style="stroke: #A80036; stroke-width: 1.5;" width="195" x="213.5" y="588.2266"/><text fill="#000000" font-family="sans-serif" font-size="14" lengthAdjust="spacingAndGlyphs" textLength="181" x="220.5" y="608.2217">solicitarPagamentoService</text><rect fill="#FEFECE" filter="url(#f589vpkp7pdm4)" height="30.2969" style="stroke: #A80036; stroke-width: 1.5;" width="160" x="422.5" y="51"/><text fill="#000000" font-family="sans-serif" font-size="14" lengthAdjust="spacingAndGlyphs" textLength="146" x="429.5" y="70.9951">PagamentoController</text><rect fill="#FEFECE" filter="url(#f589vpkp7pdm4)" height="30.2969" style="stroke: #A80036; stroke-width: 1.5;" width="160" x="422.5" y="588.2266"/><text fill="#000000" font-family="sans-serif" font-size="14" lengthAdjust="spacingAndGlyphs" textLength="146" x="429.5" y="608.2217">PagamentoController</text><rect fill="#FEFECE" filter="url(#f589vpkp7pdm4)" height="30.2969" style="stroke: #A80036; stroke-width: 1.5;" width="111" x="613" y="51"/><text fill="#000000" font-family="sans-serif" font-size="14" lengthAdjust="spacingAndGlyphs" textLength="97" x="620" y="70.9951">PagamentoAS</text><rect fill="#FEFECE" filter="url(#f589vpkp7pdm4)" height="30.2969" style="stroke: #A80036; stroke-width: 1.5;" width="111" x="613" y="588.2266"/><text fill="#000000" font-family="sans-serif" font-size="14" lengthAdjust="spacingAndGlyphs" textLength="97" x="620" y="608.2217">PagamentoAS</text><rect fill="#FEFECE" filter="url(#f589vpkp7pdm4)" height="30.2969" style="stroke: #A80036; stroke-width: 1.5;" width="108" x="802.5" y="51"/><text fill="#000000" font-family="sans-serif" font-size="14" lengthAdjust="spacingAndGlyphs" textLength="94" x="809.5" y="70.9951">ServiçoPaypal</text><rect fill="#FEFECE" filter="url(#f589vpkp7pdm4)" height="30.2969" style="stroke: #A80036; stroke-width: 1.5;" width="108" x="802.5" y="588.2266"/><text fill="#000000" font-family="sans-serif" font-size="14" lengthAdjust="spacingAndGlyphs" textLength="94" x="809.5" y="608.2217">ServiçoPaypal</text><polygon fill="#A80036" points="131,113.4297,141,117.4297,131,121.4297,135,117.4297" style="stroke: #A80036; stroke-width: 1.0;"/><line style="stroke: #A80036; stroke-width: 1.0;" x1="56" x2="137" y1="117.4297" y2="117.4297"/><text fill="#000000" font-family="sans-serif" font-size="13" lengthAdjust="spacingAndGlyphs" textLength="46" x="63" y="112.3638">Acessa</text><polygon fill="#A80036" points="301,142.5625,311,146.5625,301,150.5625,305,146.5625" style="stroke: #A80036; stroke-width: 1.0;"/><line style="stroke: #A80036; stroke-width: 1.0;" x1="143" x2="307" y1="146.5625" y2="146.5625"/><text fill="#000000" font-family="sans-serif" font-size="13" lengthAdjust="spacingAndGlyphs" textLength="146" x="150" y="141.4966">cria solicitação de post</text><polygon fill="#A80036" points="492.5,171.6953,502.5,175.6953,492.5,179.6953,496.5,175.6953" style="stroke: #A80036; stroke-width: 1.0;"/><line style="stroke: #A80036; stroke-width: 1.0;" x1="313" x2="498.5" y1="175.6953" y2="175.6953"/><text fill="#000000" font-family="sans-serif" font-size="13" lengthAdjust="spacingAndGlyphs" textLength="164" x="320" y="170.6294">solicita fatura pagamento</text><polygon fill="#A80036" points="658.5,200.8281,668.5,204.8281,658.5,208.8281,662.5,204.8281" style="stroke: #A80036; stroke-width: 1.0;"/><line style="stroke: #A80036; stroke-width: 1.0;" x1="504.5" x2="664.5" y1="204.8281" y2="204.8281"/><text fill="#000000" font-family="sans-serif" font-size="13" lengthAdjust="spacingAndGlyphs" textLength="142" x="511.5" y="199.7622">gera solicitação fatura</text><polygon fill="#A80036" points="846.5,229.9609,856.5,233.9609,846.5,237.9609,850.5,233.9609" style="stroke: #A80036; stroke-width: 1.0;"/><line style="stroke: #A80036; stroke-width: 1.0;" x1="670.5" x2="852.5" y1="233.9609" y2="233.9609"/><text fill="#000000" font-family="sans-serif" font-size="13" lengthAdjust="spacingAndGlyphs" textLength="164" x="677.5" y="228.895">solicita fatura pagamento</text><path d="M13,248.9609 L77,248.9609 L77,255.9609 L67,265.9609 L13,265.9609 L13,248.9609 " fill="#EEEEEE" style="stroke: #000000; stroke-width: 1.0;"/><rect fill="none" height="323.2656" style="stroke: #000000; stroke-width: 2.0;" width="911.5" x="13" y="248.9609"/><text fill="#000000" font-family="sans-serif" font-size="13" font-weight="bold" lengthAdjust="spacingAndGlyphs" textLength="19" x="28" y="262.0278">alt</text><text fill="#000000" font-family="sans-serif" font-size="11" font-weight="bold" lengthAdjust="spacingAndGlyphs" textLength="61" x="92" y="261.1714">[success]</text><polygon fill="#A80036" points="681.5,283.2266,671.5,287.2266,681.5,291.2266,677.5,287.2266" style="stroke: #A80036; stroke-width: 1.0;"/><line style="stroke: #A80036; stroke-width: 1.0; stroke-dasharray: 2.0,2.0;" x1="675.5" x2="857.5" y1="287.2266" y2="287.2266"/><text fill="#000000" font-family="sans-serif" font-size="13" lengthAdjust="spacingAndGlyphs" textLength="51" x="687.5" y="282.1606">success</text><polygon fill="#A80036" points="515.5,312.3594,505.5,316.3594,515.5,320.3594,511.5,316.3594" style="stroke: #A80036; stroke-width: 1.0;"/><line style="stroke: #A80036; stroke-width: 1.0; stroke-dasharray: 2.0,2.0;" x1="509.5" x2="669.5" y1="316.3594" y2="316.3594"/><text fill="#000000" font-family="sans-serif" font-size="13" lengthAdjust="spacingAndGlyphs" textLength="51" x="521.5" y="311.2935">success</text><polygon fill="#A80036" points="324,341.4922,314,345.4922,324,349.4922,320,345.4922" style="stroke: #A80036; stroke-width: 1.0;"/><line style="stroke: #A80036; stroke-width: 1.0; stroke-dasharray: 2.0,2.0;" x1="318" x2="503.5" y1="345.4922" y2="345.4922"/><text fill="#000000" font-family="sans-serif" font-size="13" lengthAdjust="spacingAndGlyphs" textLength="51" x="330" y="340.4263">success</text><polygon fill="#A80036" points="154,370.625,144,374.625,154,378.625,150,374.625" style="stroke: #A80036; stroke-width: 1.0;"/><line style="stroke: #A80036; stroke-width: 1.0; stroke-dasharray: 2.0,2.0;" x1="148" x2="312" y1="374.625" y2="374.625"/><text fill="#000000" font-family="sans-serif" font-size="13" lengthAdjust="spacingAndGlyphs" textLength="51" x="160" y="369.5591">success</text><polygon fill="#A80036" points="67,399.7578,57,403.7578,67,407.7578,63,403.7578" style="stroke: #A80036; stroke-width: 1.0;"/><line style="stroke: #A80036; stroke-width: 1.0; stroke-dasharray: 2.0,2.0;" x1="61" x2="142" y1="403.7578" y2="403.7578"/><text fill="#000000" font-family="sans-serif" font-size="13" lengthAdjust="spacingAndGlyphs" textLength="51" x="73" y="398.6919">success</text><line style="stroke: #000000; stroke-width: 1.0; stroke-dasharray: 2.0,2.0;" x1="13" x2="924.5" y1="412.7578" y2="412.7578"/><text fill="#000000" font-family="sans-serif" font-size="11" font-weight="bold" lengthAdjust="spacingAndGlyphs" textLength="52" x="18" y="422.9683">[failure]</text><polygon fill="#A80036" points="681.5,443.6953,671.5,447.6953,681.5,451.6953,677.5,447.6953" style="stroke: #A80036; stroke-width: 1.0;"/><line style="stroke: #A80036; stroke-width: 1.0; stroke-dasharray: 2.0,2.0;" x1="675.5" x2="857.5" y1="447.6953" y2="447.6953"/><text fill="#000000" font-family="sans-serif" font-size="13" lengthAdjust="spacingAndGlyphs" textLength="39" x="687.5" y="442.6294">failure</text><polygon fill="#A80036" points="515.5,472.8281,505.5,476.8281,515.5,480.8281,511.5,476.8281" style="stroke: #A80036; stroke-width: 1.0;"/><line style="stroke: #A80036; stroke-width: 1.0; stroke-dasharray: 2.0,2.0;" x1="509.5" x2="669.5" y1="476.8281" y2="476.8281"/><text fill="#000000" font-family="sans-serif" font-size="13" lengthAdjust="spacingAndGlyphs" textLength="39" x="521.5" y="471.7622">failure</text><polygon fill="#A80036" points="324,501.9609,314,505.9609,324,509.9609,320,505.9609" style="stroke: #A80036; stroke-width: 1.0;"/><line style="stroke: #A80036; stroke-width: 1.0; stroke-dasharray: 2.0,2.0;" x1="318" x2="503.5" y1="505.9609" y2="505.9609"/><text fill="#000000" font-family="sans-serif" font-size="13" lengthAdjust="spacingAndGlyphs" textLength="39" x="330" y="500.895">failure</text><polygon fill="#A80036" points="154,531.0938,144,535.0938,154,539.0938,150,535.0938" style="stroke: #A80036; stroke-width: 1.0;"/><line style="stroke: #A80036; stroke-width: 1.0; stroke-dasharray: 2.0,2.0;" x1="148" x2="312" y1="535.0938" y2="535.0938"/><text fill="#000000" font-family="sans-serif" font-size="13" lengthAdjust="spacingAndGlyphs" textLength="39" x="160" y="530.0278">failure</text><polygon fill="#A80036" points="67,560.2266,57,564.2266,67,568.2266,63,564.2266" style="stroke: #A80036; stroke-width: 1.0;"/><line style="stroke: #A80036; stroke-width: 1.0; stroke-dasharray: 2.0,2.0;" x1="61" x2="142" y1="564.2266" y2="564.2266"/><text fill="#000000" font-family="sans-serif" font-size="13" lengthAdjust="spacingAndGlyphs" textLength="39" x="73" y="559.1606">failure</text><!--MD5=[6a9043816de549298575123896a31b29]
@startuml C4_Elements
    actor Ususário
    
    Ususário -> Front_end: Acessa
    Front_end -> solicitarPagamentoService: cria solicitação de post
    solicitarPagamentoService -> PagamentoController: solicita fatura pagamento
    PagamentoController -> PagamentoAS: gera solicitação fatura
    PagamentoAS -> ServiçoPaypal: solicita fatura pagamento
    alt success
        PagamentoAS <- - ServiçoPaypal: success
        PagamentoController <- - PagamentoAS: success
        solicitarPagamentoService <- - PagamentoController: success
        Front_end <- - solicitarPagamentoService: success        
        Ususário <- - Front_end: success
    else failure
        PagamentoAS <- - ServiçoPaypal: failure
        PagamentoController <- - PagamentoAS: failure
        solicitarPagamentoService <- - PagamentoController: failure        
        Front_end <- - solicitarPagamentoService: failure        
        Ususário <- - Front_end: failure
    end
@enduml

PlantUML version 1.2020.17(Sat Sep 19 09:30:11 BRT 2020)
(GPL source distribution)
Java Runtime: Java(TM) SE Runtime Environment
JVM: Java HotSpot(TM) 64-Bit Server VM
Default Encoding: UTF-8
Language: pt
Country: BR
--></g></svg>